<svg width="24" height="25" viewBox="0 0 24 25" fill="none" xmlns="http://www.w3.org/2000/svg">
<path d="M15 23.6427H9C3.57 23.6427 1.25 21.2586 1.25 15.6785V9.51267C1.25 3.93259 3.57 1.54846 9 1.54846H14C14.41 1.54846 14.75 1.89786 14.75 2.31919C14.75 2.74052 14.41 3.08992 14 3.08992H9C4.39 3.08992 2.75 4.77525 2.75 9.51267V15.6785C2.75 20.4159 4.39 22.1013 9 22.1013H15C19.61 22.1013 21.25 20.4159 21.25 15.6785V10.5403C21.25 10.119 21.59 9.76958 22 9.76958C22.41 9.76958 22.75 10.119 22.75 10.5403V15.6785C22.75 21.2586 20.43 23.6427 15 23.6427Z" fill="#CCCCCC"/>
<path d="M22 11.309H18C14.58 11.309 13.25 9.94225 13.25 6.42772V2.31716C13.25 2.00886 13.43 1.72112 13.71 1.60808C13.99 1.48477 14.31 1.5567 14.53 1.77251L22.53 9.99363C22.6343 10.1016 22.7052 10.2388 22.7338 10.3881C22.7624 10.5373 22.7474 10.692 22.6908 10.8325C22.6342 10.9731 22.5384 11.0933 22.4155 11.178C22.2926 11.2628 22.148 11.3084 22 11.309ZM14.75 4.17719V6.42772C14.75 9.07903 15.42 9.76755 18 9.76755H20.19L14.75 4.17719Z" fill="#CCCCCC"/>
</svg>
