<svg width="35" height="35" viewBox="0 0 35 35" fill="none" xmlns="http://www.w3.org/2000/svg">
<path fill-rule="evenodd" clip-rule="evenodd" d="M29.5229 9.65376C32.1887 9.65376 34.3498 7.49269 34.3498 4.82688C34.3498 2.16107 32.1887 0 29.5229 0C26.8571 0 24.696 2.16107 24.696 4.82688C24.696 7.49269 26.8571 9.65376 29.5229 9.65376Z" fill="white"/>
<path fill-rule="evenodd" clip-rule="evenodd" d="M29.5227 21.7767C32.1885 21.7767 34.3496 19.6157 34.3496 16.95C34.3496 14.2842 32.1885 12.1232 29.5227 12.1232C26.8569 12.1232 24.6958 14.2842 24.6958 16.95C24.6958 19.6157 26.8569 21.7767 29.5227 21.7767Z" fill="white"/>
<path fill-rule="evenodd" clip-rule="evenodd" d="M29.5227 34.3493C32.1885 34.3493 34.3496 32.1882 34.3496 29.5224C34.3496 26.8566 32.1885 24.6956 29.5227 24.6956C26.8569 24.6956 24.6958 26.8566 24.6958 29.5224C24.6958 32.1882 26.8569 34.3493 29.5227 34.3493Z" fill="white"/>
<path fill-rule="evenodd" clip-rule="evenodd" d="M16.9505 21.7768C19.6162 21.7768 21.7772 19.6158 21.7772 16.95C21.7772 14.2843 19.6162 12.1233 16.9505 12.1233C14.2848 12.1233 12.1238 14.2843 12.1238 16.95C12.1238 19.6158 14.2848 21.7768 16.9505 21.7768Z" fill="white"/>
<path fill-rule="evenodd" clip-rule="evenodd" d="M16.9505 34.3494C19.6162 34.3494 21.7772 32.1883 21.7772 29.5225C21.7772 26.8567 19.6162 24.6956 16.9505 24.6956C14.2848 24.6956 12.1238 26.8567 12.1238 29.5225C12.1238 32.1883 14.2848 34.3494 16.9505 34.3494Z" fill="white"/>
<path fill-rule="evenodd" clip-rule="evenodd" d="M4.82688 34.3493C7.49269 34.3493 9.65376 32.1882 9.65376 29.5224C9.65376 26.8566 7.49269 24.6956 4.82688 24.6956C2.16107 24.6956 0 26.8566 0 29.5224C0 32.1882 2.16107 34.3493 4.82688 34.3493Z" fill="white"/>
</svg>
